<?xml version="1.0" encoding="UTF-8" standalone="no"?>
<svg width="84px" height="84px" viewBox="0 0 84 84" version="1.1" xmlns="http://www.w3.org/2000/svg" xmlns:xlink="http://www.w3.org/1999/xlink">
    <!-- Generator: sketchtool 49.2 (51160) - http://www.bohemiancoding.com/sketch -->
    <title>8DAE84D0-77A1-4221-AD12-02AFB5BE0687</title>
    <desc>Created with sketchtool.</desc>
    <defs></defs>
    <g id="Co-Brand-Mobile" stroke="none" stroke-width="1" fill="none" fill-rule="evenodd">
        <g id="Co-Brand-Desktop-Spaces" transform="translate(-477.000000, -100.000000)" fill-rule="nonzero">
            <g id="Group-2" transform="translate(477.000000, 100.000000)">
                <g id="HRB_block-376C_White-Lettering">
                    <rect id="Rectangle-path" fill="#82BC00" x="0" y="0" width="84" height="84"></rect>
                    <polygon id="Shape" fill="#FFFFFF" points="6 44 10.6047516 44 10.6047516 49.3632887 14.3671706 49.3632887 14.3671706 44 19 44 19 59 14.3671706 59 14.3671706 53.6367113 10.6047516 53.6367113 10.6047516 59 6 59"></polygon>
                    <g id="Group" transform="translate(6.000000, 44.000000)" fill="#FFFFFF">
                        <path d="M37.2201258,7.39008264 C38.2993711,7.39008264 38.9081761,6.63140496 38.9081761,5.64793388 C38.9081761,4.55206612 38.354717,3.87768595 37.2201258,3.87768595 L35.0062893,3.87768595 L35.0062893,7.41818182 L37.2201258,7.41818182 L37.2201258,7.39008264 Z M36.3069182,11.0429752 L35.0062893,11.0429752 L35.0062893,14.892562 L30.4679245,14.892562 L30.4679245,0.196694215 L37.718239,0.196694215 C41.3987421,0.196694215 43.4188679,2.41652893 43.4188679,5.61983471 C43.4188679,7.72727273 42.5056604,9.32892562 40.9283019,10.2561983 L43.8062893,14.892562 L38.5484277,14.892562 L36.3069182,11.0429752 Z" id="Shape"></path>
                        <path d="M7.33333333,30.3752066 C8.02515723,30.3752066 8.46792453,29.8413223 8.46792453,29.138843 C8.46792453,28.492562 7.99748428,27.9305785 7.30566038,27.9305785 L4.28930818,27.9305785 L4.28930818,30.4033058 L7.33333333,30.4033058 L7.33333333,30.3752066 Z M6.44779874,24.7834711 C7.13962264,24.7834711 7.52704403,24.2495868 7.52704403,23.5752066 C7.52704403,22.9289256 7.11194969,22.4231405 6.44779874,22.4231405 L4.34465409,22.4231405 L4.34465409,24.7834711 L6.44779874,24.7834711 Z M0.027672956,19.0231405 L7.55471698,19.0231405 C10.2666667,19.0231405 11.8716981,20.6247934 11.8716981,22.8446281 C11.8716981,24.3338843 11.1798742,25.5421488 9.96226415,26.1603306 C11.6779874,26.553719 12.7295597,27.7619835 12.7295597,29.5884298 C12.7295597,32.0892562 10.9308176,33.7752066 7.63773585,33.7752066 L0.027672956,33.7752066 L0.027672956,19.0231405 Z" id="Shape"></path>
                    </g>
                    <polygon id="Shape" fill="#FFFFFF" points="21 63 25.3617021 63 25.3617021 74.1142857 31 74.1142857 31 78 21 78"></polygon>
                    <g id="Group" transform="translate(32.000000, 63.000000)" fill="#FFFFFF">
                        <path d="M9.57209302,9.2 L9.57209302,6.77142857 C9.57209302,5.02857143 8.73488372,4.08571429 7.17209302,4.08571429 C5.60930233,4.08571429 4.77209302,5.02857143 4.77209302,6.77142857 L4.77209302,9.2 C4.77209302,10.9428571 5.60930233,11.8857143 7.17209302,11.8857143 C8.73488372,11.8857143 9.57209302,10.9428571 9.57209302,9.2 M0.195348837,8.91428571 L0.195348837,7.02857143 C0.195348837,2.97142857 2.59534884,0.171428571 7.17209302,0.171428571 C11.7488372,0.171428571 14.1488372,2.97142857 14.1488372,7.02857143 L14.1488372,8.91428571 C14.1488372,12.9714286 11.7488372,15.7714286 7.17209302,15.7714286 C2.59534884,15.7714286 0.195348837,12.9714286 0.195348837,8.91428571" id="Shape"></path>
                        <path d="M22.6046512,11.8857143 C24.1953488,11.8857143 24.8093023,10.7714286 24.8651163,9.68571429 L29.1906977,9.68571429 C29.0790698,13.0571429 26.7906977,15.7714286 22.6604651,15.7714286 C17.944186,15.7714286 15.6837209,13.0571429 15.6837209,9 L15.6837209,7.02857143 C15.6837209,2.97142857 17.944186,0.2 22.6604651,0.2 C26.7627907,0.2 29.0790698,2.91428571 29.1906977,6.34285714 L24.8651163,6.34285714 C24.7813953,5.25714286 24.1953488,4.14285714 22.6046512,4.14285714 C21.0418605,4.14285714 20.2883721,5.2 20.2883721,6.82857143 L20.2883721,9.22857143 C20.3162791,10.8285714 21.0418605,11.8857143 22.6046512,11.8857143" id="Shape"></path>
                        <path d="M46.8004651,1.36571429 C46.9054651,1.36571429 46.9754651,1.33071429 46.9754651,1.22571429 C46.9754651,1.12071429 46.9404651,1.08571429 46.8004651,1.08571429 L46.6604651,1.08571429 L46.6604651,1.36571429 L46.8004651,1.36571429 Z M46.744186,1.57142857 L46.6604651,1.57142857 L46.6604651,1.85714286 L46.3534884,1.85714286 L46.3534884,0.8 L46.827907,0.8 C47.1069767,0.8 47.2186047,0.942857143 47.2186047,1.17142857 C47.2186047,1.31428571 47.1348837,1.42857143 47.0790698,1.48571429 L47.3023256,1.85714286 L46.8837209,1.85714286 L46.744186,1.57142857 Z M47.6930233,1.4 C47.6930233,0.857142857 47.3302326,0.428571429 46.744186,0.428571429 C46.1302326,0.428571429 45.7953488,0.857142857 45.7953488,1.4 C45.7953488,1.94285714 46.1581395,2.37142857 46.744186,2.37142857 C47.3302326,2.37142857 47.6930233,1.94285714 47.6930233,1.4 Z M45.544186,1.4 C45.544186,0.742857143 46.0186047,0.2 46.744186,0.2 C47.4976744,0.2 47.944186,0.742857143 47.944186,1.4 C47.944186,2.05714286 47.4697674,2.6 46.744186,2.6 C45.9906977,2.6 45.544186,2.05714286 45.544186,1.4 Z" id="Shape"></path>
                    </g>
                    <polygon id="Shape" fill="#FFFFFF" points="64 63 68.4416667 63 68.4416667 68.2285714 68.7125 68.2285714 71.6104167 63 76.59375 63 72.85625 69.7428571 77 78 71.71875 78 68.79375 71.7428571 68.4416667 71.7428571 68.4416667 78 64 78"></polygon>
                    <path d="M27.4122137,56.0220588 C26.3816794,56.0220588 24.9790076,55.4705882 24.9790076,54.1194853 C24.9790076,53.3474265 25.5229008,52.7408088 26.009542,52.4375 C26.009542,52.4375 28.4427481,55.0845588 28.9866412,55.6360294 C28.7290076,55.8014706 28.0706107,56.0220588 27.4122137,56.0220588 Z M33.1946565,55.6636029 C33.7099237,54.78125 33.7671756,53.7334559 33.7671756,52.90625 L33.7671756,50.6727941 L30.4465649,50.6727941 L30.4465649,52.7683824 L26.9541985,49.0183824 C26.639313,48.6323529 26.4103053,48.3290441 26.4103053,47.8327206 C26.4103053,47.28125 26.8396947,46.8952206 27.4694656,46.8952206 C28.1564885,46.8952206 28.528626,47.3088235 28.528626,47.8878676 L28.528626,48.5772059 L32.0782443,48.5772059 L32.0782443,47.6672794 C32.0782443,45.3786765 30.1030534,44 27.3549618,44 C24.3778626,44 22.4885496,45.5165441 22.4885496,47.7775735 C22.4885496,48.4117647 22.7175573,49.4319853 23.7194656,50.2867647 C22.3740458,50.8933824 21,52.1893382 21,54.2297794 C21,57.0974265 23.3187023,59 27.4694656,59 C28.9007634,59 30.2175573,58.6139706 31.1622137,58.0073529 L31.8206107,58.6966912 L36,58.6966912 L33.1946565,55.6636029 Z" id="Shape" fill="#FFFFFF"></path>
                </g>
            </g>
        </g>
    </g>
</svg>